<svg t="1517901242434" class="icon" viewBox="0 0 1024 1024" version="1.1" xmlns="http://www.w3.org/2000/svg" p-id="1965" height="20" width="20"><path d="M823.04 840.32 524.16 540.16l296.32-294.4c12.8-12.8 12.8-33.28 0-45.44-12.8-12.8-33.28-12.8-46.08 0L478.08 494.08 184.96 200.32c-12.8-12.8-33.28-12.8-45.44 0s-12.8 33.28 0 45.44l292.48 293.76-302.72 300.8c-12.8 12.8-12.8 33.28 0 45.44 12.8 12.8 33.28 12.8 46.08 0l302.72-300.16 299.52 300.16c12.8 12.8 33.28 12.8 45.44 0C835.2 873.6 835.2 853.12 823.04 840.32z" p-id="1966" fill="#e6e6e6"></path></svg>