<svg t="1517904985480" class="icon" viewBox="0 0 1024 1024" version="1.1" xmlns="http://www.w3.org/2000/svg" p-id="3980" height="20" width="20"><path d="M512 91.529846L866.461538 300.977231V723.101538l-354.461538 209.447385L157.538462 723.101538V300.977231l354.461538-209.447385M512 0L78.769231 256v512L512 1024 945.230769 768v-512L512 0z" fill="#999999" p-id="3981"></path><path d="M512 669.538462c-86.882462 0-157.538462-70.656-157.538462-157.538462s70.656-157.538462 157.538462-157.538462 157.538462 70.656 157.538462 157.538462-70.656 157.538462-157.538462 157.538462z m0-236.307693a78.848 78.848 0 1 0 78.769231 78.769231c0-43.401846-35.288615-78.769231-78.769231-78.769231z" fill="#999999" p-id="3982"></path></svg>